<svg xmlns="http://www.w3.org/2000/svg" xmlns:xlink="http://www.w3.org/1999/xlink" width="1600" height="900" viewBox="0 0 1600 900"><defs><style>.a{fill:#fff;stroke:#707070;}.b{opacity:0.298;clip-path:url(#a);}.c,.d,.e,.f,.g,.h,.i,.j,.k,.l,.m,.n{fill:none;stroke:#764747;stroke-miterlimit:10;}.d{opacity:0.909;}.e{opacity:0.818;}.f{opacity:0.727;}.g{opacity:0.636;}.h{opacity:0.545;}.i{opacity:0.455;}.j{opacity:0.364;}.k{opacity:0.273;}.l{opacity:0.182;}.m{opacity:0.091;}.n{opacity:0;}</style><clipPath id="a"><rect class="a" width="1600" height="900"/></clipPath></defs><g class="b"><g transform="translate(1486.677 386.95)"><path class="c" d="M-1623.644-84.805c52.948,17.676,130.936,34.936,219.274,18.563,80.141-14.854,92.406-43.231,171.706-69.611,133.753-44.5,191.678,5.354,361.975-8.7,79.7-6.578,138.6-25.462,256.4-63.23,252.574-80.979,298.2-148.3,464.651-172.286,60.353-8.7,152.408-13.98,270.321,11.6" transform="translate(0 0)"/><path class="d" d="M-1593.987-28.639C-1536.884-6.4-1458.4,12.21-1371.4.052c81.955-11.453,100.241-37.076,177.671-62.652,131.042-43.271,186.289-4.085,352.719-23.348,36.2-4.189,68.541-10.7,104.631-20.439,41.411-11.317,86.922-26.184,147.2-45.568C-467.959-191-393.088-224.873-334-251.26c66.8-29.831,121.6-51.733,205.377-61.775,63.026-7.555,153.78-9.911,266.361,15.235" transform="translate(-12.412 -28.902)"/><path class="e" d="M-1564.331,27.314c61.26,26.812,140.319,46.93,225.908,38.82,83.848-7.946,108.076-30.923,183.635-55.694,128.332-42.048,180.878-13.458,343.463-38a761.123,761.123,0,0,0,102.377-22.76c41.654-12.123,86.755-27.27,144.878-46.023,120.837-39.1,197-70.945,252.875-94.455,66.6-28.026,122.388-47.585,203.581-55.418,65.735-6.342,155.153-5.842,262.4,18.869" transform="translate(-24.824 -57.591)"/><path class="f" d="M-1534.674,83.028c65.415,31.38,145.11,53.178,229.224,48.947,85.8-4.316,115.91-24.768,189.6-48.736C-990.229,42.414-940.4,60.482-781.643,30.6A870,870,0,0,0-681.52,5.514C-639.645-7.5-594.932-22.841-538.961-40.965c120.454-39.158,197.969-68.886,250.574-89.606,66.461-26.178,123.211-43.268,201.785-49.06,68.472-5.048,156.525-1.773,258.441,22.5" transform="translate(-37.237 -86.04)"/><path class="g" d="M-1505.018,138.482c69.571,35.948,150.012,55.588,232.542,59.076,87.719,3.706,123.744-18.615,195.564-41.779C-954,116.179-906.891,123.806-751.961,88.49c32.367-7.378,63.214-15.948,97.87-27.4C-612,47.173-567.671,31.645-513.851,14.153-393.78-25.062-314.863-52.582-265.578-70.6c66.371-24.27,124.06-38.8,199.99-42.7,71.228-3.663,157.9,2.3,254.482,26.135" transform="translate(-49.649 -114.231)"/><path class="h" d="M-1475.361,193.674c73.727,40.516,154.789,66.161,235.858,69.2,89.811,3.37,131.579-12.46,201.528-34.82,120.2-38.376,164.593-41.1,315.695-81.936,31.091-8.4,61.427-17.741,95.616-29.725,42.308-14.83,86.254-30.528,137.923-47.39C-369.054,29.736-288.684,4.522-242.77-10.9c66.334-22.282,124.923-34.192,198.194-36.345,74-2.175,159.271,6.365,250.522,29.769" transform="translate(-62.061 -142.159)"/><path class="i" d="M-1445.7,248.309c77.882,45.084,159.636,72.88,239.176,79.332,91.825,7.447,139.413-6.307,207.492-27.862,117.491-37.153,159.181-50.131,306.439-96.583,29.818-9.406,59.635-19.545,93.362-32.047,42.518-15.76,86.086-31.613,135.6-47.845,119.3-39.328,201.173-62.13,243.669-75.059,66.352-20.186,125.855-32.988,196.4-29.988C53.145,21.518,137.08,28.69,223,51.658" transform="translate(-74.473 -169.529)"/><path class="j" d="M-1416.048,302.65c82.039,49.652,164.466,79.736,242.493,89.46,93.817,11.691,147.248-.152,213.457-20.9,114.78-35.93,153.8-59.059,297.183-111.231,28.551-10.389,57.84-21.36,91.108-34.368,42.723-16.7,85.919-32.7,133.286-48.3,118.92-39.384,202.329-59.665,241.368-70.21,66.427-17.943,126.782-27.8,194.6-23.63,79.409,4.876,162.016,14.5,242.6,37.035" transform="translate(-86.885 -196.606)"/><path class="k" d="M-1386.391,357.588c86.194,54.22,169.26,86.716,245.81,99.588,95.766,16.1,155.083,6,219.421-13.945,112.07-34.706,148.47-67.88,287.927-125.877,27.295-11.351,56.04-23.186,88.855-36.69,42.921-17.663,85.752-33.785,130.968-48.756,118.536-39.441,203.516-57.082,239.066-65.36,66.554-15.5,127.519-19.683,192.808-17.273,82.314,3.038,163.388,18.572,238.642,40.669" transform="translate(-99.297 -224.28)"/><path class="l" d="M-1356.734,411.527c90.349,58.788,174,93.8,249.126,109.716,97.651,20.686,162.918,12.156,225.385-6.988,109.359-33.482,143.205-76.594,278.671-140.524,26.05-12.294,54.234-25.021,86.6-39.011,43.113-18.635,85.585-34.87,128.65-49.211,118.153-39.5,204.721-54.377,236.764-60.511,66.727-12.773,128.362-14.655,191.012-10.916,85.059,5.077,164.761,22.641,234.682,44.3" transform="translate(-111.71 -250.955)"/><path class="m" d="M-1327.078,465.062c94.506,63.356,178.688,100.983,252.443,119.844,99.454,25.434,170.752,18.31,231.35-.03,106.649-32.258,138.026-85.2,269.415-155.171,24.821-13.219,52.4-26.916,84.347-41.333a1305.272,1305.272,0,0,1,126.331-49.667c117.769-39.554,205.923-51.546,234.463-55.662C-61.8,273.391.453,273.495,60.489,278.485c87.772,7.3,166.132,26.71,230.722,47.936" transform="translate(-124.122 -277.226)"/><path class="n" d="M-1297.421,518.192c236.393,162.747,392.279,167,493.075,136.9C-681.114,618.3-663.2,537.025-462.094,441.62c175.108-83.071,322.823-97.971,356.175-100.936,172.773-15.355,317.285,19.371,414.183,53.369" transform="translate(-136.534 -303.091)"/></g></g></svg>