<svg xmlns="http://www.w3.org/2000/svg" xmlns:xlink="http://www.w3.org/1999/xlink" width="304.133" height="120" viewBox="0 0 304.133 120"><defs><style>.a{fill:#141414;font-size:31px;font-family:Roboto-Light, Roboto;font-weight:300;}.b{fill:url(#a);}</style><linearGradient id="a" x1="0.5" x2="0.5" y2="1" gradientUnits="objectBoundingBox"><stop offset="0" stop-color="#ff8000"/><stop offset="1" stop-color="#f31818"/></linearGradient></defs><g transform="translate(-939.436 -383.235)"><text class="a" transform="translate(1049.569 415.235)"><tspan x="0" y="0">Cognitive </tspan><tspan x="0" y="40">Engineering</tspan><tspan x="0" y="80">Data Extractor</tspan></text><path class="b" d="M42.055,0A2.05,2.05,0,0,0,40,2.056V7.067a10.4,10.4,0,0,0-5.975,11.5L21.11,53.455H8.774a2.065,2.065,0,1,0,.385,4.112H19.568L9.8,83.973a2.045,2.045,0,0,0,0,1.349l3.469,11.565v3.855a2.056,2.056,0,1,0,4.112,0V96.886l15.1-39.32H40v6.168a2.05,2.05,0,0,0,2.056,2.056h4.112a2.05,2.05,0,0,0,2.056-2.056V57.566H55.74l15.1,39.32v3.855a2.056,2.056,0,1,0,4.112,0V96.886l3.469-11.565a2.046,2.046,0,0,0,0-1.349L68.653,57.566H79.062a2.056,2.056,0,1,0,0-4.112H67.111L54.2,18.568a10.405,10.405,0,0,0-5.975-11.5V2.056A2.05,2.05,0,0,0,46.166,0Zm2.056,10.28a6.139,6.139,0,0,1,6.039,7.389,2.148,2.148,0,0,0-.193.707,6.135,6.135,0,0,1-4.626,4.112c-.128.024-.257.048-.385.064a5.774,5.774,0,0,1-.835.064,6.8,6.8,0,0,1-.707-.064,4.387,4.387,0,0,1-.45-.064H42.89c-.04-.008-.088.008-.128,0a6.165,6.165,0,0,1-4.5-4.112,2.025,2.025,0,0,0-.128-.578c-.008-.024-.056-.04-.064-.064v-.064a6.139,6.139,0,0,1,6.039-7.389ZM36.658,23.451a10.222,10.222,0,0,0,3.534,2.441L29.4,54.033a2.041,2.041,0,0,0-.578,1.542l-13.235,34.5-1.67-5.4,10.473-28.2a1.891,1.891,0,0,0,.193-.578Zm14.906,0,11.95,32.06V55.7a2.029,2.029,0,0,0,.45,1.092L74.307,84.679l-1.67,5.4L59.209,55.061a2.445,2.445,0,0,0-.064-.257l-.064-.129L48.03,25.892A10.223,10.223,0,0,0,51.563,23.451Zm-7.453,3.726L54.2,53.455H48.222V47.287a2.05,2.05,0,0,0-2.056-2.056H42.055A2.05,2.05,0,0,0,40,47.287v6.168H34.024Z" transform="translate(932.534 391.829)"/></g></svg>